<?xml version="1.0" standalone="no"?><!DOCTYPE svg PUBLIC "-//W3C//DTD SVG 1.1//EN" "http://www.w3.org/Graphics/SVG/1.1/DTD/svg11.dtd"><svg t="1627191954277" class="icon" viewBox="0 0 1024 1024" version="1.1" xmlns="http://www.w3.org/2000/svg" p-id="5051" xmlns:xlink="http://www.w3.org/1999/xlink" width="48" height="48"><defs><style type="text/css">@font-face { font-family: feedback-iconfont; src: url("//at.alicdn.com/t/font_1031158_1uhr8ri0pk5.eot?#iefix") format("embedded-opentype"), url("//at.alicdn.com/t/font_1031158_1uhr8ri0pk5.woff2") format("woff2"), url("//at.alicdn.com/t/font_1031158_1uhr8ri0pk5.woff") format("woff"), url("//at.alicdn.com/t/font_1031158_1uhr8ri0pk5.ttf") format("truetype"), url("//at.alicdn.com/t/font_1031158_1uhr8ri0pk5.svg#iconfont") format("svg"); }
</style></defs><path d="M841.333 942.885H359.997c-131.811 0-238.664-106.854-238.664-238.664V152.885c0-33.137 26.863-60 60-60h660c33.137 0 60 26.863 60 60v730c0 33.137-26.863 60-60 60z" fill="#FFFFFF" p-id="5052"></path><path d="M300.234 720.471m-216.529 0a216.529 216.529 0 1 0 433.058 0 216.529 216.529 0 1 0-433.058 0Z" fill="#7353BA" p-id="5053"></path><path d="M295.372 721.039m-40.47 0a40.47 40.47 0 1 0 80.94 0 40.47 40.47 0 1 0-80.94 0Z" fill="#F52F57" p-id="5054"></path><path d="M295.372 776.509c-30.586 0-55.47-24.884-55.47-55.47s24.884-55.47 55.47-55.47 55.47 24.884 55.47 55.47-24.884 55.47-55.47 55.47z m0-80.94c-14.044 0-25.47 11.426-25.47 25.47s11.426 25.47 25.47 25.47c14.044 0 25.47-11.426 25.47-25.47s-11.425-25.47-25.47-25.47z" fill="#2F195F" p-id="5055"></path><path d="M295.372 597.847m-30 0a30 30 0 1 0 60 0 30 30 0 1 0-60 0Z" fill="#FFFFFF" p-id="5056"></path><path d="M295.372 642.847c-24.813 0-45-20.187-45-45s20.187-45 45-45 45 20.187 45 45-20.187 45-45 45z m0-60c-8.271 0-15 6.729-15 15s6.729 15 15 15 15-6.729 15-15-6.729-15-15-15z" fill="#2F195F" p-id="5057"></path><path d="M201.543 591.375m-14.999 0a14.999 14.999 0 1 0 29.998 0 14.999 14.999 0 1 0-29.998 0Z" fill="#2F195F" p-id="5058"></path><path d="M143.059 770.207m-14.999 0a14.999 14.999 0 1 0 29.998 0 14.999 14.999 0 1 0-29.998 0Z" fill="#2F195F" p-id="5059"></path><path d="M295.067 881.091m-14.999 0a14.999 14.999 0 1 0 29.998 0 14.999 14.999 0 1 0-29.998 0Z" fill="#2F195F" p-id="5060"></path><path d="M447.497 770.788m-14.999 0a14.999 14.999 0 1 0 29.998 0 14.999 14.999 0 1 0-29.998 0Z" fill="#2F195F" p-id="5061"></path><path d="M389.696 591.734m-14.999 0a14.999 14.999 0 1 0 29.998 0 14.999 14.999 0 1 0-29.998 0Z" fill="#2F195F" p-id="5062"></path><path d="M178.21 682.971m-30 0a30 30 0 1 0 60 0 30 30 0 1 0-60 0Z" fill="#FFFFFF" p-id="5063"></path><path d="M178.216 727.979a44.96 44.96 0 0 1-13.913-2.211c-11.431-3.714-20.732-11.657-26.189-22.367-5.457-10.71-6.417-22.903-2.703-34.335 6.045-18.604 23.242-31.103 42.792-31.103 4.716 0 9.396 0.743 13.911 2.21 23.599 7.668 36.56 33.104 28.892 56.704-6.043 18.602-23.239 31.102-42.79 31.102z m-0.012-60.016a14.963 14.963 0 0 0-14.261 10.373 14.9 14.9 0 0 0 0.901 11.444 14.901 14.901 0 0 0 8.729 7.456c1.517 0.492 3.078 0.742 4.643 0.742a14.961 14.961 0 0 0 14.259-10.372c2.556-7.867-1.764-16.346-9.63-18.902a15.01 15.01 0 0 0-4.641-0.741z" fill="#2F195F" p-id="5064"></path><path d="M222.962 820.703m-30 0a30 30 0 1 0 60 0 30 30 0 1 0-60 0Z" fill="#FFFFFF" p-id="5065"></path><path d="M222.938 865.706c-9.548 0-18.686-2.974-26.426-8.598-9.724-7.064-16.115-17.493-17.996-29.365-1.88-11.872 0.976-23.766 8.041-33.489 8.44-11.617 22.059-18.553 36.431-18.553 9.547 0 18.685 2.973 26.425 8.596 20.075 14.586 24.541 42.783 9.956 62.856-8.441 11.618-22.06 18.553-36.431 18.553z m0.049-60.005c-4.872 0-9.304 2.255-12.16 6.186a14.903 14.903 0 0 0-2.68 11.164 14.897 14.897 0 0 0 5.998 9.787 14.873 14.873 0 0 0 8.793 2.868c4.872 0 9.304-2.255 12.16-6.186 4.861-6.691 3.373-16.091-3.319-20.953a14.875 14.875 0 0 0-8.792-2.866z" fill="#2F195F" p-id="5066"></path><path d="M367.783 820.703m-30 0a30 30 0 1 0 60 0 30 30 0 1 0-60 0Z" fill="#FFFFFF" p-id="5067"></path><path d="M367.807 865.706c-14.372 0-27.99-6.936-36.43-18.553-14.584-20.073-10.119-48.271 9.956-62.855 7.74-5.624 16.878-8.597 26.425-8.597 14.372 0 27.991 6.936 36.431 18.553 7.065 9.724 9.92 21.617 8.04 33.489s-8.271 22.301-17.995 29.366c-7.741 5.623-16.879 8.597-26.427 8.597z m-0.05-60.005c-3.17 0-6.21 0.991-8.791 2.867-6.691 4.861-8.18 14.261-3.319 20.952 2.856 3.931 7.288 6.186 12.16 6.186 3.17 0 6.211-0.992 8.792-2.867a14.906 14.906 0 0 0 5.999-9.789 14.906 14.906 0 0 0-2.68-11.163c-2.856-3.931-7.289-6.186-12.161-6.186z" fill="#2F195F" p-id="5068"></path><path d="M412.535 682.971m-30 0a30 30 0 1 0 60 0 30 30 0 1 0-60 0Z" fill="#FFFFFF" p-id="5069"></path><path d="M412.528 727.979c-19.55 0-36.747-12.499-42.791-31.102-7.667-23.6 5.293-49.036 28.891-56.704a44.953 44.953 0 0 1 13.912-2.21c19.551 0 36.748 12.499 42.792 31.103 3.714 11.432 2.754 23.625-2.703 34.335s-14.758 18.653-26.19 22.368a44.996 44.996 0 0 1-13.911 2.21z m0.012-60.016c-1.564 0-3.125 0.249-4.641 0.741-7.866 2.557-12.186 11.035-9.63 18.902a14.961 14.961 0 0 0 18.901 9.63 14.9 14.9 0 0 0 8.73-7.456 14.9 14.9 0 0 0 0.901-11.444 14.963 14.963 0 0 0-14.261-10.373z" fill="#2F195F" p-id="5070"></path><path d="M792.161 240.957H232.037c-22.091 0-40-17.909-40-40v-16.498c0-22.091 17.909-40 40-40h560.124c22.091 0 40 17.909 40 40v16.498c0 22.091-17.908 40-40 40z" fill="#F52F57" p-id="5071"></path><path d="M792.161 255.957H232.037c-30.327 0-55-24.673-55-55v-16.498c0-30.327 24.673-55 55-55h560.124c30.327 0 55 24.673 55 55v16.498c0 30.327-24.673 55-55 55z m-560.124-96.498c-13.785 0-25 11.215-25 25v16.498c0 13.785 11.215 25 25 25h560.124c13.785 0 25-11.215 25-25v-16.498c0-13.785-11.215-25-25-25H232.037z" fill="#2F195F" p-id="5072"></path><path d="M337.781 193h-97.067c-5.523 0-10-4.477-10-10s4.477-10 10-10h97.067c5.523 0 10 4.477 10 10s-4.477 10-10 10z" fill="#FFFFFF" p-id="5073"></path><path d="M389.696 193h-15c-5.523 0-10-4.477-10-10s4.477-10 10-10h15c5.523 0 10 4.477 10 10s-4.477 10-10 10z" fill="#FFFFFF" p-id="5074"></path><path d="M308.973 464.682c-0.255 0-0.51-0.006-0.767-0.02-3.516-0.177-6.849-0.236-10.805-0.192l-0.17 0.001c-8.207 0-14.904-6.606-14.996-14.833-0.092-8.284 6.548-15.074 14.832-15.166 4.596-0.051 8.495 0.019 12.647 0.229 8.274 0.417 14.643 7.461 14.227 15.735-0.404 8.016-7.031 14.245-14.968 14.246z" fill="#2F195F" p-id="5075"></path><path d="M913.265 345.759l-75.77-25.763 22.764-61.412 75.01 27.813z" fill="#F52F57" p-id="5076"></path><path d="M122 425.945c8.284 0 15-6.716 15-15V147c0-24.813 20.187-45 45-45h660c24.813 0 45 20.187 45 45v71c0 8.284 6.716 15 15 15s15-6.716 15-15v-71c0-41.355-33.645-75-75-75H182c-41.355 0-75 33.645-75 75v263.945c0 8.284 6.716 15 15 15z" fill="#2F195F" p-id="5077"></path><path d="M122 530.785c4.552 0 8.631-2.027 11.382-5.229 13.397-14.745 36.492-29.087 65.092-40.418 4.99-1.936 8.68-6.458 9.428-11.93 0.014-0.104 0.036-0.206 0.048-0.311 0.033-0.288 0.046-0.581 0.063-0.874 0.013-0.219 0.032-0.436 0.035-0.656 0.001-0.055 0.009-0.109 0.009-0.164l0.343-126.357c0-8.271 6.729-15 15-15h563.036c8.284 0 15-6.716 15-15s-6.716-15-15-15H223.399c-24.813 0-45 20.187-45 44.959l-0.316 116.318c-12.945 5.613-27.532 12.991-41.083 22.244V463.43c0-8.284-6.716-15-15-15s-15 6.716-15 15v51.991a15.004 15.004 0 0 0 15 15.364z" fill="#2F195F" p-id="5078"></path><path d="M940.483 272.333l-75.01-27.813a15 15 0 0 0-19.28 8.851L690.018 674.705a15.01 15.01 0 0 0-0.933 5.518l1.5 74.068h-77.871c-8.284 0-15 6.716-15 15s6.716 15 15 15h103c0.089 0 0.175-0.012 0.264-0.013a24.925 24.925 0 0 0 17.74-7.682l56.189-58.47a14.991 14.991 0 0 0 3.249-5.18l24.444-65.947v169.623c0 8.271-6.729 15-14.997 15l-241.301-0.05c15.053-35.244 22.931-73.55 22.931-112.102 0-106.354-58.955-201.281-148.299-250.179h306.321c8.284 0 15-6.716 15-15s-6.716-15-15-15H350.292c-7.736 0-14.203 5.883-14.933 13.584-0.73 7.701 4.516 14.694 12.113 16.148 119.806 22.93 206.762 128.258 206.762 250.447 0 41.843-10.363 83.348-29.971 120.025a15 15 0 0 0 13.225 22.071l265.112 0.055c24.813 0 45-20.187 45-45v-252.06c0-8.151-6.506-14.769-14.606-14.98l-0.082-0.004c-0.105-0.002-0.206-0.016-0.312-0.016-0.089 0-0.174 0.012-0.263 0.013-6.161-0.073-11.978 3.667-14.241 9.773l-51.984 140.244-45.666 47.52-1.31-64.648 127.349-343.565L893.842 355l-53.277 143.73c-2.88 7.768 1.083 16.398 8.851 19.278 7.771 2.877 16.399-1.084 19.278-8.852L887 459.773V877c0 24.813-20.187 45-45 45H295.372c-110.81 0-200.961-90.15-200.961-200.961s90.151-200.961 200.961-200.961c110.811 0 200.961 90.15 200.961 200.961 0 57.03-24.373 111.588-66.87 149.686-6.168 5.53-6.686 15.013-1.156 21.182 5.531 6.169 15.013 6.687 21.182 1.156 48.836-43.78 76.844-106.48 76.844-172.023 0-61.692-24.024-119.691-67.646-163.314-43.623-43.622-101.623-67.646-163.314-67.646s-119.691 24.024-163.314 67.646C88.436 601.349 64.412 659.348 64.412 721.04c0 61.691 24.024 119.691 67.647 163.313C175.681 927.976 233.68 952 295.372 952H842c41.355 0 75-33.645 75-75V378.839l32.333-87.228a14.894 14.894 0 0 0 0.925-5.884c-0.264-5.839-3.95-11.234-9.775-13.394z m-36.21 54.525l-47.356-16.102 12.192-32.893 46.882 17.383-11.718 31.612z" fill="#2F195F" p-id="5079"></path><path d="M256.05 368.79c-8.284 0-15 6.716-15 15s6.716 15 15 15h512.1c8.284 0 15-6.716 15-15s-6.716-15-15-15h-512.1zM719.137 513.223c0-8.284-6.716-15-15-15H576.112c-8.284 0-15 6.716-15 15s6.716 15 15 15h128.024c8.285 0 15.001-6.716 15.001-15zM688.259 578.554c0-8.284-6.716-15-15-15h-68.996c-8.284 0-15 6.716-15 15s6.716 15 15 15h68.996c8.284 0 15-6.716 15-15zM669.657 639.965c0-8.284-6.716-15-15-15h-31.943c-8.284 0-15 6.716-15 15s6.716 15 15 15h31.943c8.284 0 15-6.716 15-15zM630.714 688.883c-8.284 0-15 6.716-15 15s6.716 15 15 15h13.943c8.284 0 15-6.716 15-15s-6.716-15-15-15h-13.943z" fill="#2F195F" p-id="5080"></path></svg>