<?xml version="1.0" standalone="no"?><!DOCTYPE svg PUBLIC "-//W3C//DTD SVG 1.1//EN" "http://www.w3.org/Graphics/SVG/1.1/DTD/svg11.dtd"><svg t="1627191191896" class="icon" viewBox="0 0 1024 1024" version="1.1" xmlns="http://www.w3.org/2000/svg" p-id="3790" xmlns:xlink="http://www.w3.org/1999/xlink" width="48" height="48"><defs><style type="text/css">@font-face { font-family: feedback-iconfont; src: url("//at.alicdn.com/t/font_1031158_1uhr8ri0pk5.eot?#iefix") format("embedded-opentype"), url("//at.alicdn.com/t/font_1031158_1uhr8ri0pk5.woff2") format("woff2"), url("//at.alicdn.com/t/font_1031158_1uhr8ri0pk5.woff") format("woff"), url("//at.alicdn.com/t/font_1031158_1uhr8ri0pk5.ttf") format("truetype"), url("//at.alicdn.com/t/font_1031158_1uhr8ri0pk5.svg#iconfont") format("svg"); }
</style></defs><path d="M795.2 873.4c-27.1 0-49.1-22-49.1-49.1v-624.7c0-27.1 22-49.1 49.1-49.1s49.1 22 49.1 49.1v624.7c0 27.1-22 49.1-49.1 49.1z" fill="#D55553" opacity=".8" p-id="3791"></path><path d="M795.2 248.8H241.5c-27.1 0-49.1-22-49.1-49.1s22-49.1 49.1-49.1h553.7c27.1 0 49.1 22 49.1 49.1s-22 49.1-49.1 49.1z" fill="#D55553" opacity=".8" p-id="3792"></path><path d="M518.4 441.1H394.3c-27.1 0-49.1-22-49.1-49.1s22-49.1 49.1-49.1h124.1c27.1 0 49.1 22 49.1 49.1s-22 49.1-49.1 49.1z" fill="#F4AA35" opacity=".9" p-id="3793"></path><path d="M655.1 617.8H394.3c-27.1 0-49.1-22-49.1-49.1s22-49.1 49.1-49.1h260.8c27.1 0 49.1 22 49.1 49.1s-21.9 49.1-49.1 49.1z" fill="#F4AA35" opacity=".9" p-id="3794"></path><path d="M241.5 873.4c-27.1 0-49.1-22-49.1-49.1v-624.7c0-27.1 22-49.1 49.1-49.1s49.1 22 49.1 49.1v624.7c0 27.1-21.9 49.1-49.1 49.1z" fill="#D55553" opacity=".8" p-id="3795"></path><path d="M795.2 873.4H241.5c-27.1 0-49.1-22-49.1-49.1s22-49.1 49.1-49.1h553.7c27.1 0 49.1 22 49.1 49.1s-22 49.1-49.1 49.1z" fill="#D55553" opacity=".8" p-id="3796"></path></svg>